<svg width="363" height="34" viewBox="0 0 363 34" fill="none" xmlns="http://www.w3.org/2000/svg">
<path d="M10.845 33V1.68H17.91V33H10.845ZM0.9 7.395V1.23H27.855V7.395H0.9ZM51.0152 33L38.1452 16.44L50.6102 1.23H59.3402L45.3002 17.745V14.865L59.7902 33H51.0152ZM31.8002 33V1.23H38.8652V33H31.8002ZM70.8237 33V1.23H77.8887V33H70.8237ZM76.2687 33V26.79H91.9737V33H76.2687ZM104.202 33.45C102.192 33.45 100.392 32.955 98.8017 31.965C97.2417 30.975 95.9967 29.625 95.0667 27.915C94.1667 26.205 93.7167 24.255 93.7167 22.065C93.7167 19.875 94.1667 17.925 95.0667 16.215C95.9967 14.505 97.2417 13.155 98.8017 12.165C100.392 11.175 102.192 10.68 104.202 10.68C105.672 10.68 106.992 10.965 108.162 11.535C109.362 12.105 110.337 12.9 111.087 13.92C111.837 14.91 112.257 16.05 112.347 17.34V26.79C112.257 28.08 111.837 29.235 111.087 30.255C110.367 31.245 109.407 32.025 108.207 32.595C107.007 33.165 105.672 33.45 104.202 33.45ZM105.597 27.24C107.067 27.24 108.252 26.76 109.152 25.8C110.052 24.81 110.502 23.565 110.502 22.065C110.502 21.045 110.292 20.145 109.872 19.365C109.482 18.585 108.912 17.985 108.162 17.565C107.442 17.115 106.602 16.89 105.642 16.89C104.682 16.89 103.827 17.115 103.077 17.565C102.357 17.985 101.772 18.585 101.322 19.365C100.902 20.145 100.692 21.045 100.692 22.065C100.692 23.055 100.902 23.94 101.322 24.72C101.742 25.5 102.327 26.115 103.077 26.565C103.827 27.015 104.667 27.24 105.597 27.24ZM110.232 33V27.105L111.267 21.795L110.232 16.485V11.13H116.982V33H110.232ZM134.429 33.45C132.959 33.45 131.609 33.15 130.379 32.55C129.149 31.92 128.144 31.095 127.364 30.075C126.584 29.025 126.134 27.855 126.014 26.565V17.34C126.134 16.05 126.584 14.91 127.364 13.92C128.144 12.9 129.149 12.105 130.379 11.535C131.609 10.965 132.959 10.68 134.429 10.68C136.499 10.68 138.329 11.175 139.919 12.165C141.539 13.155 142.799 14.505 143.699 16.215C144.629 17.925 145.094 19.875 145.094 22.065C145.094 24.255 144.629 26.205 143.699 27.915C142.799 29.625 141.539 30.975 139.919 31.965C138.329 32.955 136.499 33.45 134.429 33.45ZM121.829 33V0.33H128.714V16.485L127.589 21.795L128.624 27.105V33H121.829ZM133.214 27.24C134.174 27.24 135.014 27.015 135.734 26.565C136.484 26.115 137.069 25.5 137.489 24.72C137.909 23.94 138.119 23.055 138.119 22.065C138.119 21.045 137.909 20.145 137.489 19.365C137.069 18.585 136.484 17.985 135.734 17.565C135.014 17.115 134.174 16.89 133.214 16.89C132.254 16.89 131.399 17.115 130.649 17.565C129.899 17.985 129.314 18.585 128.894 19.365C128.504 20.145 128.309 21.045 128.309 22.065C128.309 23.085 128.519 23.985 128.939 24.765C129.359 25.545 129.929 26.16 130.649 26.61C131.399 27.03 132.254 27.24 133.214 27.24ZM158.762 33.495C156.152 33.495 153.902 33.075 152.012 32.235C150.152 31.365 148.442 30.06 146.882 28.32L151.472 23.775C152.492 24.945 153.617 25.86 154.847 26.52C156.107 27.15 157.562 27.465 159.212 27.465C160.712 27.465 161.867 27.195 162.677 26.655C163.517 26.115 163.937 25.365 163.937 24.405C163.937 23.535 163.667 22.83 163.127 22.29C162.587 21.75 161.867 21.285 160.967 20.895C160.097 20.505 159.122 20.13 158.042 19.77C156.992 19.41 155.942 19.005 154.892 18.555C153.842 18.075 152.867 17.49 151.967 16.8C151.097 16.08 150.392 15.195 149.852 14.145C149.312 13.065 149.042 11.715 149.042 10.095C149.042 8.145 149.507 6.465 150.437 5.055C151.397 3.645 152.717 2.58 154.397 1.86C156.077 1.11 158.012 0.735 160.202 0.735C162.422 0.735 164.447 1.125 166.277 1.905C168.137 2.685 169.667 3.75 170.867 5.1L166.277 9.645C165.317 8.655 164.342 7.92 163.352 7.44C162.392 6.96 161.297 6.72 160.067 6.72C158.837 6.72 157.862 6.96 157.142 7.44C156.422 7.89 156.062 8.55 156.062 9.42C156.062 10.23 156.332 10.89 156.872 11.4C157.412 11.88 158.117 12.3 158.987 12.66C159.887 13.02 160.862 13.38 161.912 13.74C162.992 14.1 164.057 14.52 165.107 15C166.157 15.48 167.117 16.095 167.987 16.845C168.887 17.565 169.607 18.495 170.147 19.635C170.687 20.745 170.957 22.125 170.957 23.775C170.957 26.805 169.877 29.19 167.717 30.93C165.557 32.64 162.572 33.495 158.762 33.495ZM185.271 33.495C183.021 33.495 180.981 33 179.151 32.01C177.321 31.02 175.881 29.655 174.831 27.915C173.781 26.175 173.256 24.225 173.256 22.065C173.256 19.875 173.781 17.925 174.831 16.215C175.911 14.475 177.366 13.11 179.196 12.12C181.026 11.13 183.081 10.635 185.361 10.635C187.071 10.635 188.631 10.935 190.041 11.535C191.481 12.105 192.756 12.975 193.866 14.145L189.456 18.555C188.946 17.985 188.346 17.565 187.656 17.295C186.996 17.025 186.231 16.89 185.361 16.89C184.371 16.89 183.486 17.115 182.706 17.565C181.956 17.985 181.356 18.585 180.906 19.365C180.486 20.115 180.276 21 180.276 22.02C180.276 23.04 180.486 23.94 180.906 24.72C181.356 25.5 181.971 26.115 182.751 26.565C183.531 27.015 184.401 27.24 185.361 27.24C186.261 27.24 187.056 27.09 187.746 26.79C188.466 26.46 189.081 26.01 189.591 25.44L193.956 29.85C192.816 31.05 191.526 31.965 190.086 32.595C188.646 33.195 187.041 33.495 185.271 33.495ZM211.465 33V20.535C211.465 19.395 211.105 18.48 210.385 17.79C209.695 17.07 208.81 16.71 207.73 16.71C206.98 16.71 206.32 16.875 205.75 17.205C205.18 17.505 204.73 17.955 204.4 18.555C204.07 19.125 203.905 19.785 203.905 20.535L201.25 19.23C201.25 17.52 201.61 16.02 202.33 14.73C203.05 13.44 204.055 12.45 205.345 11.76C206.635 11.04 208.12 10.68 209.8 10.68C211.51 10.68 213.01 11.04 214.3 11.76C215.59 12.45 216.58 13.425 217.27 14.685C217.99 15.915 218.35 17.355 218.35 19.005V33H211.465ZM197.02 33V0.33H203.905V33H197.02ZM233.302 33.495C231.052 33.495 229.012 33 227.182 32.01C225.382 30.99 223.957 29.61 222.907 27.87C221.857 26.13 221.332 24.18 221.332 22.02C221.332 19.86 221.857 17.925 222.907 16.215C223.957 14.505 225.382 13.155 227.182 12.165C228.982 11.145 231.022 10.635 233.302 10.635C235.582 10.635 237.622 11.13 239.422 12.12C241.222 13.11 242.647 14.475 243.697 16.215C244.747 17.925 245.272 19.86 245.272 22.02C245.272 24.18 244.747 26.13 243.697 27.87C242.647 29.61 241.222 30.99 239.422 32.01C237.622 33 235.582 33.495 233.302 33.495ZM233.302 27.24C234.292 27.24 235.162 27.03 235.912 26.61C236.662 26.16 237.232 25.545 237.622 24.765C238.042 23.955 238.252 23.04 238.252 22.02C238.252 21 238.042 20.115 237.622 19.365C237.202 18.585 236.617 17.985 235.867 17.565C235.147 17.115 234.292 16.89 233.302 16.89C232.342 16.89 231.487 17.115 230.737 17.565C229.987 17.985 229.402 18.585 228.982 19.365C228.562 20.145 228.352 21.045 228.352 22.065C228.352 23.055 228.562 23.955 228.982 24.765C229.402 25.545 229.987 26.16 230.737 26.61C231.487 27.03 232.342 27.24 233.302 27.24ZM259.23 33.495C256.98 33.495 254.94 33 253.11 32.01C251.31 30.99 249.885 29.61 248.835 27.87C247.785 26.13 247.26 24.18 247.26 22.02C247.26 19.86 247.785 17.925 248.835 16.215C249.885 14.505 251.31 13.155 253.11 12.165C254.91 11.145 256.95 10.635 259.23 10.635C261.51 10.635 263.55 11.13 265.35 12.12C267.15 13.11 268.575 14.475 269.625 16.215C270.675 17.925 271.2 19.86 271.2 22.02C271.2 24.18 270.675 26.13 269.625 27.87C268.575 29.61 267.15 30.99 265.35 32.01C263.55 33 261.51 33.495 259.23 33.495ZM259.23 27.24C260.22 27.24 261.09 27.03 261.84 26.61C262.59 26.16 263.16 25.545 263.55 24.765C263.97 23.955 264.18 23.04 264.18 22.02C264.18 21 263.97 20.115 263.55 19.365C263.13 18.585 262.545 17.985 261.795 17.565C261.075 17.115 260.22 16.89 259.23 16.89C258.27 16.89 257.415 17.115 256.665 17.565C255.915 17.985 255.33 18.585 254.91 19.365C254.49 20.145 254.28 21.045 254.28 22.065C254.28 23.055 254.49 23.955 254.91 24.765C255.33 25.545 255.915 26.16 256.665 26.61C257.415 27.03 258.27 27.24 259.23 27.24ZM274.627 33V0.33H281.512V33H274.627ZM308.34 33.495C305.73 33.495 303.42 32.94 301.41 31.83C299.43 30.72 297.87 29.19 296.73 27.24C295.62 25.26 295.065 23.01 295.065 20.49V1.23H302.175V20.895C302.175 22.155 302.445 23.25 302.985 24.18C303.525 25.11 304.26 25.83 305.19 26.34C306.15 26.82 307.2 27.06 308.34 27.06C309.54 27.06 310.59 26.82 311.49 26.34C312.39 25.83 313.095 25.125 313.605 24.225C314.145 23.295 314.415 22.2 314.415 20.94V1.23H321.525V20.535C321.525 23.055 320.97 25.29 319.86 27.24C318.75 29.19 317.205 30.72 315.225 31.83C313.245 32.94 310.95 33.495 308.34 33.495ZM332.557 21.435V15.945H339.397C340.267 15.945 341.062 15.765 341.782 15.405C342.502 15.045 343.072 14.52 343.492 13.83C343.912 13.14 344.122 12.3 344.122 11.31C344.122 10.35 343.912 9.525 343.492 8.835C343.072 8.145 342.502 7.62 341.782 7.26C341.062 6.9 340.267 6.72 339.397 6.72H332.557V1.23H340.432C342.442 1.23 344.257 1.635 345.877 2.445C347.497 3.255 348.772 4.425 349.702 5.955C350.662 7.455 351.142 9.24 351.142 11.31C351.142 13.38 350.662 15.18 349.702 16.71C348.772 18.21 347.497 19.38 345.877 20.22C344.257 21.03 342.442 21.435 340.432 21.435H332.557ZM327.157 33V1.23H334.222V33H327.157ZM355.106 33V1.23H362.171V33H355.106Z" fill="white"/>
</svg>
